<?xml version="1.0" encoding="UTF-8" standalone="no"?>
<!-- Created with Inkscape (http://www.inkscape.org/) -->

<svg
   xmlns:dc="http://purl.org/dc/elements/1.1/"
   xmlns:cc="http://creativecommons.org/ns#"
   xmlns:rdf="http://www.w3.org/1999/02/22-rdf-syntax-ns#"
   xmlns:svg="http://www.w3.org/2000/svg"
   xmlns="http://www.w3.org/2000/svg"
   xmlns:sodipodi="http://sodipodi.sourceforge.net/DTD/sodipodi-0.dtd"
   xmlns:inkscape="http://www.inkscape.org/namespaces/inkscape"
   width="86.025002mm"
   height="96.213997mm"
   viewBox="0 0 86.025002 96.213997"
   version="1.1"
   id="svg834"
   inkscape:export-filename="C:\Users\Theodore\Downloads\suanPan.png"
   inkscape:export-xdpi="300"
   inkscape:export-ydpi="300"
   inkscape:version="0.92.3 (2405546, 2018-03-11)"
   sodipodi:docname="suanPan.svg">
  <defs
     id="defs828">
    <filter
       style="color-interpolation-filters:sRGB"
       inkscape:label="Feather"
       id="filter1438">
      <feGaussianBlur
         stdDeviation="2.5"
         result="blur"
         id="feGaussianBlur1430" />
      <feComposite
         in="SourceGraphic"
         in2="blur"
         operator="atop"
         result="composite1"
         id="feComposite1432" />
      <feComposite
         in2="composite1"
         operator="in"
         result="composite2"
         id="feComposite1434" />
      <feComposite
         in2="composite2"
         operator="in"
         result="composite3"
         id="feComposite1436" />
    </filter>
    <filter
       style="color-interpolation-filters:sRGB"
       inkscape:label="Feather"
       id="filter1488">
      <feGaussianBlur
         stdDeviation="1"
         result="blur"
         id="feGaussianBlur1480" />
      <feComposite
         in="SourceGraphic"
         in2="blur"
         operator="atop"
         result="composite1"
         id="feComposite1482" />
      <feComposite
         in2="composite1"
         operator="in"
         result="composite2"
         id="feComposite1484" />
      <feComposite
         in2="composite2"
         operator="in"
         result="composite3"
         id="feComposite1486" />
    </filter>
    <filter
       style="color-interpolation-filters:sRGB"
       inkscape:label="Feather"
       id="filter895">
      <feGaussianBlur
         stdDeviation="1"
         result="blur"
         id="feGaussianBlur887" />
      <feComposite
         in="SourceGraphic"
         in2="blur"
         operator="atop"
         result="composite1"
         id="feComposite889" />
      <feComposite
         in2="composite1"
         operator="in"
         result="composite2"
         id="feComposite891" />
      <feComposite
         in2="composite2"
         operator="in"
         result="composite3"
         id="feComposite893" />
    </filter>
    <filter
       style="color-interpolation-filters:sRGB"
       inkscape:label="Feather"
       id="filter875">
      <feGaussianBlur
         stdDeviation="3"
         result="blur"
         id="feGaussianBlur867" />
      <feComposite
         in="SourceGraphic"
         in2="blur"
         operator="atop"
         result="composite1"
         id="feComposite869" />
      <feComposite
         in2="composite1"
         operator="in"
         result="composite2"
         id="feComposite871" />
      <feComposite
         in2="composite2"
         operator="in"
         result="composite3"
         id="feComposite873" />
    </filter>
  </defs>
  <sodipodi:namedview
     id="base"
     pagecolor="#ffffff"
     bordercolor="#666666"
     borderopacity="1.0"
     inkscape:pageopacity="0.0"
     inkscape:pageshadow="2"
     inkscape:zoom="2.359454"
     inkscape:cx="162.56693"
     inkscape:cy="181.82173"
     inkscape:document-units="mm"
     inkscape:current-layer="layer1"
     showgrid="false"
     inkscape:window-width="1920"
     inkscape:window-height="1027"
     inkscape:window-x="-8"
     inkscape:window-y="-8"
     inkscape:window-maximized="1"
     inkscape:pagecheckerboard="true" />
  <metadata
     id="metadata831">
    <rdf:RDF>
      <cc:Work
         rdf:about="">
        <dc:format>image/svg+xml</dc:format>
        <dc:type
           rdf:resource="http://purl.org/dc/dcmitype/StillImage" />
        <dc:title></dc:title>
      </cc:Work>
    </rdf:RDF>
  </metadata>
  <g
     inkscape:label="Layer 1"
     inkscape:groupmode="layer"
     id="layer1"
     transform="translate(0,-200.786)">
    <g
       id="g1493"
       transform="matrix(0.99999635,0,0,1.0000003,7.0061009,-9.5251549)">
      <path
         inkscape:connector-curvature="0"
         id="path826"
         d="m 8.6054359,298.37059 c -2.6825455,1.17528 -6.7248831,-1.68492 -3.6413149,-3.8232 3.8329049,-2.73576 9.089788,-1.7943 13.559838,-2.57373 3.547429,-0.12132 8.022199,-0.16316 9.651779,-3.95233 2.05554,-2.50012 4.94091,-8.65517 -0.0701,-9.13888 -2.04458,1.98659 -3.4505,6.76783 -7.35117,6.45992 -2.056555,2.06587 -6.028552,1.74685 -8.810455,3.16375 -3.2775481,2.15608 -2.9751714,-3.85468 -0.100514,-4.41324 2.998363,-0.65613 5.470044,-1.59428 8.400619,-2.88482 2.89167,-0.83018 4.14145,-7.09577 -0.11468,-5.16193 -1.672178,2.69013 -7.56438,3.96315 -6.585312,-0.27804 1.236884,-3.6081 5.124797,-5.23263 6.853922,-8.26506 1.67946,-2.40947 4.00859,-4.10708 5.02305,-6.68492 2.13837,-4.54302 -4.03322,-2.8506 -6.493092,-3.75616 -2.55905,0.2223 -7.748437,-3.81409 -8.542886,-0.22204 2.036806,2.75195 5.89666,2.89388 8.224221,5.20731 4.012417,1.00029 -0.993499,5.53661 -3.041854,2.22039 -1.437622,-1.12449 -6.0052457,-2.19222 -5.1424,0.92861 0.592149,1.94109 0.03933,3.85258 -2.4807508,3.2033 -2.9925052,-0.81999 -3.2102822,-5.24171 -4.0986326,-7.97148 -0.6573217,-3.61326 -2.0243688,-6.75113 -1.8836758,-10.61607 1.0499674,-3.64522 0.5507817,-8.32438 3.3276559,-11.43031 1.6543471,-3.40014 7.6830853,0.93659 5.3429663,3.63256 0.196267,3.25751 5.465958,3.75732 8.3107,3.93869 3.066868,-0.4808 8.124838,5.67643 2.518478,4.86478 -1.88314,0.58879 -6.490142,-1.69062 -6.771127,0.0359 2.711392,1.27917 4.991477,2.1094 7.864557,2.94979 2.51083,1.40277 6.38716,2.18512 6.30424,-2.05934 1.24366,-3.06432 -0.008,-6.73711 -2.28113,-8.45249 -3.74986,-0.94046 -7.146796,1.41352 -10.838109,0.32267 -3.774738,-1.41212 -2.485925,-7.91472 -2.079118,-10.7065 1.27167,-3.36889 4.943197,-4.10997 8.252987,-4.46087 4.18533,-0.53461 8.41297,-0.39739 12.62043,-0.53627 2.56008,-1.83753 7.83736,2.4847 3.69717,4.2635 -5.48962,0.489 -11.17523,-0.50188 -16.52565,1.09744 -2.939634,0.56637 -3.867509,6.49055 0.3936,4.75114 3.78888,0.47087 7.51324,-2.49582 11.22445,-0.6383 1.86795,2.71371 0.31446,6.69116 0.80552,9.91085 -0.91302,3.43271 -1.51906,7.38974 -3.07549,10.51931 -0.0253,2.93821 -2.44767,5.56609 -3.50228,8.50733 -3.07286,3.37059 1.21689,6.24657 4.39977,6.71877 4.37335,0.42606 9.15387,1.35683 13.33941,-0.14069 4.01507,-0.83935 8.02365,-2.35029 11.86834,-3.32983 2.36864,1.32697 2.27509,6.2065 -1.03338,6.47158 -4.3121,1.5428 1.59088,4.76652 3.66876,5.48639 3.33661,1.29594 7.85298,0.42021 10.39157,3.18558 -2.66344,1.30866 -5.28064,3.83411 -8.82599,2.04334 -3.8482,-0.30966 -7.64614,-1.51545 -10.65025,-3.95495 -0.41021,-2.3748 -5.0621,-6.4651 -5.02683,-1.85564 1.02639,3.17614 0.43281,7.38757 3.37674,9.64721 6.18627,2.26974 12.88859,0.73764 19.25741,1.77698 3.7488,-0.35514 5.14441,3.13351 1.81743,4.96656 -4.13937,0.47886 -8.23295,-1.01598 -12.46017,-0.5522 -3.87533,-0.13282 -7.39459,-0.12581 -10.98623,-0.49331 -4.17577,0.70446 -8.32358,-1.18991 -12.57528,-0.16638 -6.08611,0.49097 -12.19832,0.33785 -18.290922,0.68445 -2.216368,1.02093 -4.823719,1.2925 -7.2167921,1.56088 z M 37.674278,290.6021 c 2.16756,-0.0653 5.38183,0.86938 3.99195,-2.49627 -1.13754,-2.78821 -0.38974,-8.11331 -4.25123,-8.60243 -2.46686,2.95752 -2.71554,7.37293 -4.51967,10.83744 1.54511,0.53573 3.19047,0.11426 4.77895,0.26126 z m 30.66265,-18.57656 c -3.53058,0.40691 -2.55158,-5.0831 -5.33319,-6.47932 -3.17654,-0.33887 -5.98295,1.77198 -9.11793,1.76658 -2.84902,0.71125 -6.11908,0.94285 -9.46577,1.14294 -3.56842,0.87178 -8.30002,-0.91722 -9.58409,-3.57105 3.61746,-1.79492 7.90739,-1.66005 11.83795,-2.33676 4.10519,-0.48243 8.08187,-0.99879 11.99546,-2.27779 3.31043,-2.92014 -3.55858,-1.95629 -5.21282,-1.99195 -5.50298,0.0727 -10.92567,1.14893 -16.43569,1.16615 -2.5491,-3.06191 2.63422,-4.25437 4.88616,-4.4787 4.1455,-0.60461 8.23615,-1.6909 12.48374,-1.43532 3.17806,-0.0955 6.455,0.47214 9.57171,-0.21363 1.59218,-3.4965 -4.68523,-1.43974 -6.63738,-1.73033 -4.24281,-0.28413 -8.54273,-0.60522 -12.78071,-0.24327 -2.69976,0.34333 -6.26675,2.67596 -8.51807,0.44806 -2.97871,-2.22802 -0.6303,-7.50313 3.12857,-5.91281 3.21441,0.59502 4.83212,-0.69969 7.94393,-0.49888 1.29168,-0.27879 3.24631,0.61774 4.02899,-0.56346 -0.67386,-4.60352 3.47185,-6.81148 6.93469,-8.6508 2.90936,-3.26852 -3.8941,-2.70718 -5.73072,-2.18 -4.38187,-0.60754 -3.35681,4.44897 -5.38233,6.65759 -1.38248,1.55383 -3.76764,3.04901 -3.01052,-0.2003 -0.11368,-5.30527 -0.22736,-10.61055 -0.34103,-15.91582 0.7614,-2.79188 4.36989,-7.07111 6.82455,-3.04157 1.96799,2.32421 -2.82847,7.2977 2.54402,6.4945 3.21341,0.45941 6.31898,-1.00481 9.37239,-0.92852 4.13218,0.61482 3.63056,5.00207 2.65649,7.99137 -0.24097,3.07641 -1.60258,7.03479 -5.51205,6.78137 -4.12806,0.9212 -1.45544,5.18137 1.74864,4.73557 3.13627,-0.45237 6.72976,-0.33729 7.27291,3.47938 2.21591,4.13872 -2.0262,8.6025 -0.46727,12.63665 -0.17335,3.17206 3.42253,5.66401 2.84288,8.58573 -0.69222,0.58788 -1.65905,0.77065 -2.54351,0.76439 z"
         style="fill:#000000;stroke-width:0.26458338;filter:url(#filter1488)" />
      <path
         style="fill:#f83839;fill-opacity:1;stroke-width:0.26458338"
         d="m 6.6535261,296.7263 c -2.682547,1.17528 -6.72488698,-1.68492 -3.641317,-3.8232 3.832907,-2.73576 9.0897909,-1.7943 13.5598409,-2.57373 3.547433,-0.12132 8.022201,-0.16316 9.651774,-3.95233 2.055545,-2.50012 4.940913,-8.65517 -0.07013,-9.13888 -2.044573,1.98659 -3.450498,6.76783 -7.351164,6.45992 -2.056556,2.06587 -6.028553,1.74685 -8.8104559,3.16375 -3.277549,2.15608 -2.975172,-3.85468 -0.100514,-4.41324 2.9983629,-0.65613 5.4700439,-1.59428 8.4006179,-2.88482 2.891674,-0.83018 4.14145,-7.09577 -0.114675,-5.16193 -1.672182,2.69013 -7.564384,3.96315 -6.585316,-0.27804 1.236884,-3.6081 5.124797,-5.23263 6.853923,-8.26506 1.679463,-2.40947 4.008592,-4.10708 5.023045,-6.68492 2.138371,-4.54302 -4.03322,-2.8506 -6.493088,-3.75616 -2.55905,0.2223 -7.7484369,-3.81409 -8.5428859,-0.22204 2.0368059,2.75195 5.8966599,2.89388 8.2242209,5.20731 4.01242,1.00029 -0.993499,5.53661 -3.041854,2.22039 -1.437622,-1.12449 -6.0052459,-2.19222 -5.1423999,0.92861 0.592149,1.94109 0.03933,3.85258 -2.480752,3.2033 -2.992507,-0.81999 -3.210284,-5.24171 -4.098635,-7.97148 -0.657322,-3.61326 -2.02436998,-6.75113 -1.88367698,-10.61607 1.04996798,-3.64522 0.550782,-8.32438 3.32765798,-11.43031 1.654348,-3.40014 7.6830879,0.93659 5.342969,3.63256 0.196267,3.25751 5.4659579,3.75732 8.3106999,3.93869 3.066867,-0.4808 8.124839,5.67643 2.518477,4.86478 -1.883142,0.58879 -6.490141,-1.69062 -6.771126,0.0359 2.711392,1.27917 4.99148,2.1094 7.864554,2.94979 2.510832,1.40277 6.387161,2.18512 6.304239,-2.05934 1.243663,-3.06432 -0.0078,-6.73711 -2.281125,-8.45249 -3.749859,-0.94046 -7.146797,1.41352 -10.83811,0.32267 -3.774738,-1.41212 -2.485925,-7.91472 -2.079118,-10.7065 1.27167,-3.36889 4.943197,-4.10997 8.252985,-4.46087 4.185328,-0.53461 8.412976,-0.39739 12.620433,-0.53627 2.560076,-1.83753 7.837362,2.4847 3.697172,4.2635 -5.489625,0.489 -11.175235,-0.50188 -16.525653,1.09744 -2.939634,0.56637 -3.867509,6.49055 0.393597,4.75114 3.788883,0.47087 7.51324,-2.49582 11.224451,-0.6383 1.867952,2.71371 0.314462,6.69116 0.805521,9.91085 -0.913021,3.43271 -1.519057,7.38974 -3.075492,10.51931 -0.02535,2.93821 -2.447667,5.56609 -3.502281,8.50733 -3.072853,3.37059 1.216891,6.24657 4.399771,6.71877 4.373352,0.42606 9.153876,1.35683 13.339416,-0.14069 4.01507,-0.83935 8.02365,-2.35029 11.86834,-3.32983 2.36864,1.32697 2.27509,6.2065 -1.03338,6.47158 -4.3121,1.5428 1.59088,4.76652 3.66876,5.48639 3.336611,1.29594 7.852981,0.42021 10.391571,3.18558 -2.66344,1.30866 -5.28064,3.83411 -8.825991,2.04334 -3.8482,-0.30966 -7.64614,-1.51545 -10.65025,-3.95495 -0.41021,-2.3748 -5.0621,-6.4651 -5.02683,-1.85564 1.02639,3.17614 0.43281,7.38757 3.37674,9.64721 6.18627,2.26974 12.88859,0.73764 19.257411,1.77698 3.7488,-0.35514 5.14441,3.13351 1.81743,4.96656 -4.13937,0.47886 -8.232951,-1.01598 -12.460171,-0.5522 -3.87533,-0.13282 -7.39459,-0.12581 -10.98623,-0.49331 -4.17577,0.70446 -8.32358,-1.18991 -12.575285,-0.16638 -6.08611,0.49097 -12.198318,0.33785 -18.29092,0.68445 -2.216368,1.02093 -4.8237189,1.2925 -7.2167929,1.56088 z m 29.0688479,-7.76849 c 2.16756,-0.0653 5.38183,0.86938 3.99195,-2.49627 -1.13754,-2.78821 -0.38974,-8.11331 -4.25123,-8.60243 -2.466866,2.95752 -2.715548,7.37293 -4.519679,10.83744 1.545114,0.53573 3.190473,0.11426 4.778959,0.26126 z m 30.662649,-18.57656 c -3.53058,0.40691 -2.55158,-5.0831 -5.33319,-6.47932 -3.176539,-0.33887 -5.982949,1.77198 -9.117929,1.76658 -2.84902,0.71125 -6.11908,0.94285 -9.46577,1.14294 -3.56842,0.87178 -8.300028,-0.91722 -9.584091,-3.57105 3.617461,-1.79492 7.907391,-1.66005 11.837951,-2.33676 4.10519,-0.48243 8.08187,-0.99879 11.99546,-2.27779 3.31043,-2.92014 -3.55858,-1.95629 -5.21282,-1.99195 -5.50298,0.0727 -10.92567,1.14893 -16.435695,1.16615 -2.549098,-3.06191 2.634225,-4.25437 4.886165,-4.4787 4.1455,-0.60461 8.23615,-1.6909 12.48374,-1.43532 3.17806,-0.0955 6.455,0.47214 9.571709,-0.21363 1.59218,-3.4965 -4.685229,-1.43974 -6.637379,-1.73033 -4.24281,-0.28413 -8.54273,-0.60522 -12.78071,-0.24327 -2.69976,0.34333 -6.26675,2.67596 -8.518074,0.44806 -2.97871,-2.22802 -0.630303,-7.50313 3.128574,-5.91281 3.21441,0.59502 4.83212,-0.69969 7.94393,-0.49888 1.29168,-0.27879 3.24631,0.61774 4.02899,-0.56346 -0.67386,-4.60352 3.47185,-6.81148 6.93469,-8.6508 2.90936,-3.26852 -3.8941,-2.70718 -5.73072,-2.18 -4.38187,-0.60754 -3.35681,4.44897 -5.38233,6.65759 -1.38248,1.55383 -3.76764,3.04901 -3.01052,-0.2003 -0.11368,-5.30527 -0.22736,-10.61055 -0.34103,-15.91582 0.7614,-2.79188 4.36989,-7.07111 6.82455,-3.04157 1.96799,2.32421 -2.82847,7.2977 2.54402,6.4945 3.21341,0.45941 6.31898,-1.00481 9.37239,-0.92852 4.132179,0.61482 3.630559,5.00207 2.656489,7.99137 -0.24097,3.07641 -1.60258,7.03479 -5.512049,6.78137 -4.12806,0.9212 -1.45544,5.18137 1.74864,4.73557 3.136269,-0.45237 6.729759,-0.33729 7.272909,3.47938 2.21591,4.13872 -2.0262,8.6025 -0.46727,12.63665 -0.17335,3.17206 3.42253,5.66401 2.84288,8.58573 -0.69222,0.58788 -1.65905,0.77065 -2.54351,0.76439 z"
         id="path1396"
         inkscape:connector-curvature="0" />
      <path
         inkscape:connector-curvature="0"
         id="path1398"
         d="m 6.6535261,296.7263 c -2.682547,1.17528 -6.72488698,-1.68492 -3.641317,-3.8232 3.832907,-2.73576 9.0897909,-1.7943 13.5598409,-2.57373 3.547433,-0.12132 8.022201,-0.16316 9.651774,-3.95233 2.055545,-2.50012 4.940913,-8.65517 -0.07013,-9.13888 -2.044573,1.98659 -3.450498,6.76783 -7.351164,6.45992 -2.056556,2.06587 -6.028553,1.74685 -8.8104559,3.16375 -3.277549,2.15608 -2.975172,-3.85468 -0.100514,-4.41324 2.9983629,-0.65613 5.4700439,-1.59428 8.4006179,-2.88482 2.891674,-0.83018 4.14145,-7.09577 -0.114675,-5.16193 -1.672182,2.69013 -7.564384,3.96315 -6.585316,-0.27804 1.236884,-3.6081 5.124797,-5.23263 6.853923,-8.26506 1.679463,-2.40947 4.008592,-4.10708 5.023045,-6.68492 2.138371,-4.54302 -4.03322,-2.8506 -6.493088,-3.75616 -2.55905,0.2223 -7.7484369,-3.81409 -8.5428859,-0.22204 2.0368059,2.75195 5.8966599,2.89388 8.2242209,5.20731 4.01242,1.00029 -0.993499,5.53661 -3.041854,2.22039 -1.437622,-1.12449 -6.0052459,-2.19222 -5.1423999,0.92861 0.592149,1.94109 0.03933,3.85258 -2.480752,3.2033 -2.992507,-0.81999 -3.210284,-5.24171 -4.098635,-7.97148 -0.657322,-3.61326 -2.02436998,-6.75113 -1.88367698,-10.61607 1.04996798,-3.64522 0.550782,-8.32438 3.32765798,-11.43031 1.654348,-3.40014 7.6830879,0.93659 5.342969,3.63256 0.196267,3.25751 5.4659579,3.75732 8.3106999,3.93869 3.066867,-0.4808 8.124839,5.67643 2.518477,4.86478 -1.883142,0.58879 -6.490141,-1.69062 -6.771126,0.0359 2.711392,1.27917 4.99148,2.1094 7.864554,2.94979 2.510832,1.40277 6.387161,2.18512 6.304239,-2.05934 1.243663,-3.06432 -0.0078,-6.73711 -2.281125,-8.45249 -3.749859,-0.94046 -7.146797,1.41352 -10.83811,0.32267 -3.774738,-1.41212 -2.485925,-7.91472 -2.079118,-10.7065 1.27167,-3.36889 4.943197,-4.10997 8.252985,-4.46087 4.185328,-0.53461 8.412976,-0.39739 12.620433,-0.53627 2.560076,-1.83753 7.837362,2.4847 3.697172,4.2635 -5.489625,0.489 -11.175235,-0.50188 -16.525653,1.09744 -2.939634,0.56637 -3.867509,6.49055 0.393597,4.75114 3.788883,0.47087 7.51324,-2.49582 11.224451,-0.6383 1.867952,2.71371 0.314462,6.69116 0.805521,9.91085 -0.913021,3.43271 -1.519057,7.38974 -3.075492,10.51931 -0.02535,2.93821 -2.447667,5.56609 -3.502281,8.50733 -3.072853,3.37059 1.216891,6.24657 4.399771,6.71877 4.373352,0.42606 9.153876,1.35683 13.339416,-0.14069 4.01507,-0.83935 8.02365,-2.35029 11.86834,-3.32983 2.36864,1.32697 2.27509,6.2065 -1.03338,6.47158 -4.3121,1.5428 1.59088,4.76652 3.66876,5.48639 3.33661,1.29594 7.85298,0.42021 10.39157,3.18558 -2.66344,1.30866 -5.28064,3.83411 -8.82599,2.04334 -3.8482,-0.30966 -7.64614,-1.51545 -10.65025,-3.95495 -0.41021,-2.3748 -5.0621,-6.4651 -5.02683,-1.85564 1.02639,3.17614 0.43281,7.38757 3.37674,9.64721 6.18627,2.26974 12.88859,0.73764 19.25741,1.77698 3.7488,-0.35514 5.14441,3.13351 1.81743,4.96656 -4.13937,0.47886 -8.23295,-1.01598 -12.46017,-0.5522 -3.87533,-0.13282 -7.39459,-0.12581 -10.98623,-0.49331 -4.17577,0.70446 -8.32358,-1.18991 -12.575285,-0.16638 -6.08611,0.49097 -12.198318,0.33785 -18.29092,0.68445 -2.216368,1.02093 -4.8237189,1.2925 -7.2167929,1.56088 z m 29.0688479,-7.76849 c 2.16756,-0.0653 5.38183,0.86938 3.99195,-2.49627 -1.13754,-2.78821 -0.38974,-8.11331 -4.25123,-8.60243 -2.466866,2.95752 -2.715548,7.37293 -4.519679,10.83744 1.545114,0.53573 3.190473,0.11426 4.778959,0.26126 z m 30.66265,-18.57656 c -3.53058,0.40691 -2.55158,-5.0831 -5.33319,-6.47932 -3.17654,-0.33887 -5.98295,1.77198 -9.11793,1.76658 -2.84902,0.71125 -6.11908,0.94285 -9.46577,1.14294 -3.56842,0.87178 -8.300028,-0.91722 -9.584091,-3.57105 3.617461,-1.79492 7.907391,-1.66005 11.837951,-2.33676 4.10519,-0.48243 8.08187,-0.99879 11.99546,-2.27779 3.31043,-2.92014 -3.55858,-1.95629 -5.21282,-1.99195 -5.50298,0.0727 -10.92567,1.14893 -16.435695,1.16615 -2.549098,-3.06191 2.634225,-4.25437 4.886165,-4.4787 4.1455,-0.60461 8.23615,-1.6909 12.48374,-1.43532 3.17806,-0.0955 6.455,0.47214 9.57171,-0.21363 1.59218,-3.4965 -4.68523,-1.43974 -6.63738,-1.73033 -4.24281,-0.28413 -8.54273,-0.60522 -12.78071,-0.24327 -2.69976,0.34333 -6.26675,2.67596 -8.518074,0.44806 -2.97871,-2.22802 -0.630303,-7.50313 3.128574,-5.91281 3.21441,0.59502 4.83212,-0.69969 7.94393,-0.49888 1.29168,-0.27879 3.24631,0.61774 4.02899,-0.56346 -0.67386,-4.60352 3.47185,-6.81148 6.93469,-8.6508 2.90936,-3.26852 -3.8941,-2.70718 -5.73072,-2.18 -4.38187,-0.60754 -3.35681,4.44897 -5.38233,6.65759 -1.38248,1.55383 -3.76764,3.04901 -3.01052,-0.2003 -0.11368,-5.30527 -0.22736,-10.61055 -0.34103,-15.91582 0.7614,-2.79188 4.36989,-7.07111 6.82455,-3.04157 1.96799,2.32421 -2.82847,7.2977 2.54402,6.4945 3.21341,0.45941 6.31898,-1.00481 9.37239,-0.92852 4.13218,0.61482 3.63056,5.00207 2.65649,7.99137 -0.24097,3.07641 -1.60258,7.03479 -5.51205,6.78137 -4.12806,0.9212 -1.45544,5.18137 1.74864,4.73557 3.13627,-0.45237 6.72976,-0.33729 7.27291,3.47938 2.21591,4.13872 -2.0262,8.6025 -0.46727,12.63665 -0.17335,3.17206 3.42253,5.66401 2.84288,8.58573 -0.69222,0.58788 -1.65905,0.77065 -2.54351,0.76439 z"
         style="fill:#ffffff;fill-opacity:0.66666667;stroke-width:0.26458338;filter:url(#filter1438)" />
    </g>
  </g>
</svg>
